# MagicaVoxel @ ephtracy

# material
mtllib JF.Chi.1.mtl
usemtl palette

# normals
vn -1 0 0
vn 1 0 0
vn 0 0 1
vn 0 0 -1
vn 0 -1 0
vn 0 1 0

# texcoords
vt 0.0332031 0.5
vt 0.251953 0.5
vt 0.810547 0.5
vt 0.958984 0.5
vt 0.962891 0.5
vt 0.966797 0.5
vt 0.986328 0.5
vt 0.990234 0.5

# verts
v -4.5 14 2
v -4.5 14 1
v -4.5 15 3
v -4.5 15 2
v -4.5 15 1
v -4.5 15 -0
v -4.5 17 3
v -4.5 17 -0
v -3.5 2 7
v -3.5 2 4
v -3.5 3 7
v -3.5 3 4
v -3.5 4 8
v -3.5 4 7
v -3.5 4 4
v -3.5 4 3
v -3.5 4 2
v -3.5 4 1
v -3.5 5 8
v -3.5 5 7
v -3.5 5 4
v -3.5 5 3
v -3.5 5 2
v -3.5 5 1
v -3.5 6 7
v -3.5 6 4
v -3.5 6 2
v -3.5 6 1
v -3.5 8 1
v -3.5 8 -0
v -3.5 9 2
v -3.5 9 1
v -3.5 10 3
v -3.5 10 2
v -3.5 10 1
v -3.5 10 -0
v -3.5 12 2
v -3.5 12 1
v -3.5 13 3
v -3.5 13 2
v -3.5 13 1
v -3.5 13 -1
v -3.5 14 4
v -3.5 14 3
v -3.5 14 2
v -3.5 14 1
v -3.5 15 3
v -3.5 15 2
v -3.5 15 1
v -3.5 15 -0
v -3.5 16 5
v -3.5 16 4
v -3.5 17 5
v -3.5 17 3
v -3.5 17 -0
v -3.5 18 3
v -3.5 18 -1
v -2.5 2 3
v -2.5 2 1
v -2.5 3 1
v -2.5 3 -0
v -2.5 4 3
v -2.5 4 2
v -2.5 4 1
v -2.5 5 2
v -2.5 5 1
v -2.5 6 2
v -2.5 6 1
v -2.5 8 1
v -2.5 8 -0
v -2.5 11 4
v -2.5 11 -0
v -2.5 12 2
v -2.5 12 1
v -2.5 12 -0
v -2.5 12 -1
v -2.5 13 3
v -2.5 13 2
v -2.5 13 1
v -2.5 13 -1
v -2.5 13 -2
v -2.5 14 4
v -2.5 14 3
v -2.5 15 5
v -2.5 15 4
v -2.5 16 5
v -2.5 16 4
v -2.5 17 4
v -2.5 17 3
v -2.5 17 -1
v -2.5 17 -2
v -2.5 18 3
v -2.5 18 -0
v -2.5 19 4
v -2.5 19 -0
v -1.5 0 2
v -1.5 0 1
v -1.5 2 2
v -1.5 2 1
v -1.5 2 -0
v -1.5 3 1
v -1.5 3 -0
v -1.5 10 2
v -1.5 10 1
v -1.5 10 -0
v -1.5 11 2
v -1.5 11 -0
v 0.5 0 2
v 0.5 0 1
v 0.5 2 2
v 0.5 2 1
v 1.5 14 5
v 1.5 14 4
v 1.5 15 5
v 1.5 15 4
v -2.5 2 7
v -2.5 2 4
v -2.5 3 7
v -2.5 3 4
v -2.5 4 8
v -2.5 4 7
v -2.5 4 4
v -2.5 4 3
v -2.5 5 8
v -2.5 5 7
v -2.5 5 4
v -2.5 5 3
v -2.5 6 7
v -2.5 6 4
v -0.5 0 2
v -0.5 0 1
v -0.5 2 2
v -0.5 2 1
v 1.5 0 2
v 1.5 0 1
v 1.5 2 2
v 1.5 2 1
v 1.5 2 -0
v 1.5 3 1
v 1.5 3 -0
v 1.5 10 2
v 1.5 10 1
v 1.5 10 -0
v 1.5 11 2
v 1.5 11 -0
v 1.5 18 4
v 1.5 18 -0
v 1.5 19 4
v 1.5 19 -0
v 2.5 2 3
v 2.5 2 1
v 2.5 3 1
v 2.5 3 -0
v 2.5 4 3
v 2.5 4 2
v 2.5 5 2
v 2.5 6 2
v 2.5 6 1
v 2.5 8 1
v 2.5 8 -0
v 2.5 11 4
v 2.5 11 -0
v 2.5 12 3
v 2.5 12 2
v 2.5 12 1
v 2.5 12 -0
v 2.5 12 -1
v 2.5 13 4
v 2.5 13 3
v 2.5 13 -0
v 2.5 13 -1
v 2.5 13 -2
v 2.5 14 -0
v 2.5 14 -1
v 2.5 15 5
v 2.5 15 4
v 2.5 15 -1
v 2.5 15 -2
v 2.5 16 4
v 2.5 16 3
v 2.5 16 -1
v 2.5 16 -2
v 2.5 17 5
v 2.5 17 4
v 2.5 17 3
v 2.5 17 -1
v 2.5 17 -2
v 2.5 18 4
v 2.5 18 -1
v 3.5 4 3
v 3.5 4 2
v 3.5 5 3
v 3.5 5 2
v 3.5 6 2
v 3.5 6 1
v 3.5 8 1
v 3.5 8 -0
v 3.5 10 3
v 3.5 10 -0
v 3.5 12 3
v 3.5 12 2
v 3.5 12 1
v 3.5 12 -0
v 3.5 13 4
v 3.5 13 3
v 3.5 14 5
v 3.5 14 4
v 3.5 14 2
v 3.5 14 1
v 3.5 14 -0
v 3.5 14 -1
v 3.5 15 5
v 3.5 15 4
v 3.5 15 -1
v 3.5 15 -2
v 3.5 16 4
v 3.5 16 3
v 3.5 16 -1
v 3.5 16 -2
v 3.5 17 3
v 3.5 17 -1
v -3.5 4 8
v -3.5 5 8
v -2.5 4 8
v -2.5 5 8
v -3.5 2 7
v -3.5 3 7
v -3.5 4 7
v -3.5 5 7
v -3.5 6 7
v -2.5 2 7
v -2.5 3 7
v -2.5 4 7
v -2.5 5 7
v -2.5 6 7
v -3.5 16 5
v -3.5 17 5
v -2.5 15 5
v -2.5 16 5
v 1.5 14 5
v 1.5 15 5
v 2.5 15 5
v 2.5 17 5
v 3.5 14 5
v 3.5 15 5
v -3.5 14 4
v -3.5 16 4
v -2.5 11 4
v -2.5 14 4
v -2.5 15 4
v -2.5 16 4
v -2.5 17 4
v -2.5 19 4
v -1.5 13 4
v -1.5 14 4
v -0.5 13 4
v -0.5 14 4
v 0.5 13 4
v 0.5 14 4
v 1.5 13 4
v 1.5 14 4
v 1.5 15 4
v 1.5 18 4
v 1.5 19 4
v 2.5 11 4
v 2.5 13 4
v 2.5 14 4
v 2.5 15 4
v 2.5 16 4
v 2.5 17 4
v 2.5 18 4
v 3.5 13 4
v 3.5 14 4
v 3.5 15 4
v 3.5 16 4
v -4.5 15 3
v -4.5 17 3
v -3.5 5 3
v -3.5 10 3
v -3.5 13 3
v -3.5 14 3
v -3.5 15 3
v -3.5 17 3
v -3.5 18 3
v -2.5 2 3
v -2.5 4 3
v -2.5 5 3
v -2.5 9 3
v -2.5 13 3
v -2.5 14 3
v -2.5 17 3
v -2.5 18 3
v -1.5 2 3
v -1.5 4 3
v -1.5 7 3
v -1.5 9 3
v -1.5 10 3
v -0.5 6 3
v -0.5 7 3
v -0.5 9 3
v 0.5 6 3
v 0.5 7 3
v 0.5 9 3
v 1.5 2 3
v 1.5 4 3
v 1.5 7 3
v 1.5 8 3
v 1.5 9 3
v 1.5 10 3
v 2.5 2 3
v 2.5 4 3
v 2.5 5 3
v 2.5 7 3
v 2.5 8 3
v 2.5 9 3
v 2.5 12 3
v 2.5 13 3
v 2.5 16 3
v 2.5 17 3
v 3.5 4 3
v 3.5 5 3
v 3.5 10 3
v 3.5 12 3
v 3.5 13 3
v 3.5 16 3
v 3.5 17 3
v -4.5 14 2
v -4.5 15 2
v -3.5 12 2
v -3.5 13 2
v -3.5 14 2
v -3.5 15 2
v -2.5 12 2
v -2.5 13 2
v -1.5 0 2
v -1.5 2 2
v -1.5 10 2
v -1.5 11 2
v -0.5 0 2
v -0.5 2 2
v -0.5 10 2
v -0.5 11 2
v 0.5 0 2
v 0.5 2 2
v 0.5 10 2
v 0.5 11 2
v 1.5 0 2
v 1.5 2 2
v 1.5 10 2
v 1.5 11 2
v -3.5 2 4
v -3.5 3 4
v -3.5 4 4
v -3.5 5 4
v -3.5 6 4
v -2.5 2 4
v -2.5 3 4
v -2.5 4 4
v -2.5 5 4
v -2.5 6 4
v -3.5 5 2
v -3.5 6 2
v -2.5 5 2
v -2.5 6 2
v 2.5 4 2
v 2.5 5 2
v 2.5 6 2
v 3.5 4 2
v 3.5 5 2
v 3.5 6 2
v -4.5 14 1
v -4.5 15 1
v -3.5 4 1
v -3.5 5 1
v -3.5 6 1
v -3.5 8 1
v -3.5 12 1
v -3.5 13 1
v -3.5 14 1
v -3.5 15 1
v -2.5 2 1
v -2.5 3 1
v -2.5 4 1
v -2.5 5 1
v -2.5 6 1
v -2.5 8 1
v -2.5 12 1
v -2.5 13 1
v -1.5 0 1
v -1.5 2 1
v -1.5 3 1
v -0.5 0 1
v -0.5 2 1
v 0.5 0 1
v 0.5 2 1
v 1.5 0 1
v 1.5 2 1
v 1.5 3 1
v 2.5 2 1
v 2.5 3 1
v 2.5 6 1
v 2.5 8 1
v 3.5 6 1
v 3.5 8 1
v -4.5 15 -0
v -4.5 17 -0
v -3.5 8 -0
v -3.5 10 -0
v -3.5 15 -0
v -3.5 17 -0
v -2.5 3 -0
v -2.5 8 -0
v -2.5 10 -0
v -2.5 11 -0
v -2.5 12 -0
v -2.5 18 -0
v -2.5 19 -0
v -1.5 2 -0
v -1.5 3 -0
v -1.5 5 -0
v -1.5 8 -0
v -1.5 10 -0
v -1.5 11 -0
v -0.5 4 -0
v -0.5 5 -0
v 0.5 4 -0
v 0.5 5 -0
v 1.5 2 -0
v 1.5 3 -0
v 1.5 5 -0
v 1.5 8 -0
v 1.5 10 -0
v 1.5 11 -0
v 1.5 18 -0
v 1.5 19 -0
v 2.5 3 -0
v 2.5 8 -0
v 2.5 10 -0
v 2.5 11 -0
v 2.5 12 -0
v 2.5 13 -0
v 2.5 14 -0
v 3.5 8 -0
v 3.5 10 -0
v 3.5 12 -0
v 3.5 14 -0
v -3.5 13 -1
v -3.5 18 -1
v -2.5 12 -1
v -2.5 13 -1
v -2.5 17 -1
v 2.5 12 -1
v 2.5 13 -1
v 2.5 14 -1
v 2.5 15 -1
v 2.5 16 -1
v 2.5 17 -1
v 2.5 18 -1
v 3.5 14 -1
v 3.5 15 -1
v 3.5 16 -1
v 3.5 17 -1
v -2.5 13 -2
v -2.5 17 -2
v 2.5 13 -2
v 2.5 15 -2
v 2.5 16 -2
v 2.5 17 -2
v 3.5 15 -2
v 3.5 16 -2
v -1.5 0 2
v -0.5 0 2
v 0.5 0 2
v 1.5 0 2
v -1.5 0 1
v -0.5 0 1
v 0.5 0 1
v 1.5 0 1
v -3.5 2 7
v -2.5 2 7
v -3.5 2 4
v -2.5 2 4
v -2.5 2 3
v -1.5 2 3
v 1.5 2 3
v 2.5 2 3
v -1.5 2 2
v -0.5 2 2
v 0.5 2 2
v 1.5 2 2
v -2.5 2 1
v -1.5 2 1
v -0.5 2 1
v 0.5 2 1
v 1.5 2 1
v 2.5 2 1
v -1.5 2 -0
v 1.5 2 -0
v -2.5 3 1
v -1.5 3 1
v 1.5 3 1
v 2.5 3 1
v -2.5 3 -0
v -1.5 3 -0
v 1.5 3 -0
v 2.5 3 -0
v -3.5 4 8
v -2.5 4 8
v -3.5 4 7
v -2.5 4 7
v -3.5 4 4
v -2.5 4 4
v -3.5 4 3
v -2.5 4 3
v 2.5 4 3
v 3.5 4 3
v -3.5 4 2
v -2.5 4 2
v 2.5 4 2
v 3.5 4 2
v -3.5 4 1
v -2.5 4 1
v -3.5 6 2
v -2.5 6 2
v 2.5 6 2
v 3.5 6 2
v -3.5 6 1
v -2.5 6 1
v 2.5 6 1
v 3.5 6 1
v -3.5 8 1
v -2.5 8 1
v 2.5 8 1
v 3.5 8 1
v -3.5 8 -0
v -2.5 8 -0
v 2.5 8 -0
v 3.5 8 -0
v -2.5 11 4
v 2.5 11 4
v -1.5 11 2
v -0.5 11 2
v 0.5 11 2
v 1.5 11 2
v -2.5 11 -0
v -1.5 11 -0
v 1.5 11 -0
v 2.5 11 -0
v 2.5 12 3
v 3.5 12 3
v -3.5 12 2
v -2.5 12 2
v 2.5 12 2
v 3.5 12 2
v -3.5 12 1
v -2.5 12 1
v 2.5 12 1
v 3.5 12 1
v -2.5 12 -0
v 2.5 12 -0
v 3.5 12 -0
v -2.5 12 -1
v 2.5 12 -1
v 2.5 13 4
v 3.5 13 4
v -3.5 13 3
v -2.5 13 3
v 2.5 13 3
v 3.5 13 3
v -3.5 13 2
v -2.5 13 2
v -3.5 13 1
v -2.5 13 1
v -3.5 13 -1
v -2.5 13 -1
v 2.5 13 -1
v -2.5 13 -2
v 2.5 13 -2
v 1.5 14 5
v 3.5 14 5
v -3.5 14 4
v -2.5 14 4
v 1.5 14 4
v 2.5 14 4
v 3.5 14 4
v -3.5 14 3
v -2.5 14 3
v -4.5 14 2
v -3.5 14 2
v -4.5 14 1
v -3.5 14 1
v 2.5 14 -0
v 3.5 14 -0
v 2.5 14 -1
v 3.5 14 -1
v -2.5 15 5
v 1.5 15 5
v -2.5 15 4
v 1.5 15 4
v -4.5 15 3
v -3.5 15 3
v -4.5 15 2
v -3.5 15 2
v -4.5 15 1
v -3.5 15 1
v -4.5 15 -0
v -3.5 15 -0
v 2.5 15 -1
v 3.5 15 -1
v 2.5 15 -2
v 3.5 15 -2
v -3.5 16 5
v -2.5 16 5
v -3.5 16 4
v -2.5 16 4
v -3.5 5 8
v -2.5 5 8
v -3.5 5 7
v -2.5 5 7
v -3.5 5 4
v -2.5 5 4
v -3.5 5 3
v -2.5 5 3
v -3.5 5 2
v -2.5 5 2
v -3.5 5 1
v -2.5 5 1
v -3.5 6 7
v -2.5 6 7
v -3.5 6 4
v -2.5 6 4
v -3.5 10 3
v -1.5 10 3
v 1.5 10 3
v 3.5 10 3
v -3.5 10 2
v -2.5 10 2
v -1.5 10 2
v -0.5 10 2
v 0.5 10 2
v 1.5 10 2
v 2.5 10 2
v -3.5 10 1
v -2.5 10 1
v -1.5 10 1
v 1.5 10 1
v 2.5 10 1
v -3.5 10 -0
v -2.5 10 -0
v -1.5 10 -0
v 1.5 10 -0
v 2.5 10 -0
v 3.5 10 -0
v 2.5 15 5
v 3.5 15 5
v 2.5 15 4
v 3.5 15 4
v 2.5 16 4
v 3.5 16 4
v 2.5 16 3
v 3.5 16 3
v 2.5 16 -1
v 3.5 16 -1
v 2.5 16 -2
v 3.5 16 -2
v -3.5 17 5
v 2.5 17 5
v -2.5 17 4
v 2.5 17 4
v -4.5 17 3
v -3.5 17 3
v -2.5 17 3
v 2.5 17 3
v 3.5 17 3
v -4.5 17 -0
v -3.5 17 -0
v -2.5 17 -1
v 2.5 17 -1
v 3.5 17 -1
v -2.5 17 -2
v 2.5 17 -2
v 1.5 18 4
v 2.5 18 4
v -3.5 18 3
v -2.5 18 3
v -2.5 18 -0
v 1.5 18 -0
v -3.5 18 -1
v 2.5 18 -1
v -2.5 19 4
v 1.5 19 4
v -2.5 19 -0
v 1.5 19 -0

# faces
f 4/7/1 2/7/1 1/7/1
f 5/7/1 2/7/1 4/7/1
f 7/7/1 4/7/1 3/7/1
f 7/7/1 6/7/1 5/7/1
f 7/7/1 5/7/1 4/7/1
f 8/7/1 6/7/1 7/7/1
f 11/6/1 10/6/1 9/6/1
f 12/6/1 10/6/1 11/6/1
f 14/8/1 12/8/1 11/8/1
f 15/8/1 12/8/1 14/8/1
f 19/2/1 14/2/1 13/2/1
f 20/8/1 15/8/1 14/8/1
f 20/2/1 14/2/1 19/2/1
f 21/2/1 16/2/1 15/2/1
f 21/8/1 15/8/1 20/8/1
f 22/1/1 17/1/1 16/1/1
f 22/2/1 16/2/1 21/2/1
f 23/2/1 18/2/1 17/2/1
f 23/1/1 17/1/1 22/1/1
f 24/2/1 18/2/1 23/2/1
f 25/8/1 21/8/1 20/8/1
f 26/8/1 21/8/1 25/8/1
f 27/5/1 23/5/1 22/5/1
f 29/5/1 28/5/1 27/5/1
f 31/5/1 29/5/1 27/5/1
f 31/5/1 30/5/1 29/5/1
f 31/5/1 27/5/1 22/5/1
f 32/5/1 30/5/1 31/5/1
f 33/5/1 31/5/1 22/5/1
f 34/4/1 32/4/1 31/4/1
f 34/5/1 31/5/1 33/5/1
f 35/5/1 30/5/1 32/5/1
f 35/4/1 32/4/1 34/4/1
f 36/5/1 30/5/1 35/5/1
f 40/1/1 38/1/1 37/1/1
f 41/1/1 38/1/1 40/1/1
f 44/7/1 40/7/1 39/7/1
f 45/1/1 41/1/1 40/1/1
f 45/7/1 40/7/1 44/7/1
f 46/7/1 42/7/1 41/7/1
f 46/1/1 41/1/1 45/1/1
f 47/7/1 44/7/1 43/7/1
f 47/7/1 45/7/1 44/7/1
f 48/7/1 45/7/1 47/7/1
f 49/7/1 42/7/1 46/7/1
f 50/7/1 42/7/1 49/7/1
f 52/7/1 47/7/1 43/7/1
f 53/7/1 52/7/1 51/7/1
f 54/7/1 47/7/1 52/7/1
f 54/7/1 52/7/1 53/7/1
f 55/7/1 42/7/1 50/7/1
f 56/7/1 55/7/1 54/7/1
f 57/7/1 42/7/1 55/7/1
f 57/7/1 55/7/1 56/7/1
f 60/5/1 59/5/1 58/5/1
f 62/5/1 60/5/1 58/5/1
f 62/5/1 61/5/1 60/5/1
f 63/5/1 61/5/1 62/5/1
f 64/5/1 61/5/1 63/5/1
f 66/5/1 61/5/1 64/5/1
f 67/5/1 66/5/1 65/5/1
f 68/5/1 61/5/1 66/5/1
f 68/5/1 66/5/1 67/5/1
f 69/5/1 61/5/1 68/5/1
f 70/5/1 61/5/1 69/5/1
f 73/1/1 72/1/1 71/1/1
f 74/1/1 72/1/1 73/1/1
f 75/1/1 72/1/1 74/1/1
f 77/1/1 73/1/1 71/1/1
f 78/1/1 73/1/1 77/1/1
f 79/1/1 75/1/1 74/1/1
f 79/1/1 76/1/1 75/1/1
f 80/1/1 76/1/1 79/1/1
f 82/1/1 77/1/1 71/1/1
f 83/1/1 77/1/1 82/1/1
f 86/7/1 85/7/1 84/7/1
f 87/7/1 85/7/1 86/7/1
f 90/7/1 81/7/1 80/7/1
f 91/7/1 81/7/1 90/7/1
f 92/7/1 89/7/1 88/7/1
f 94/7/1 92/7/1 88/7/1
f 94/7/1 93/7/1 92/7/1
f 95/7/1 93/7/1 94/7/1
f 98/8/1 97/8/1 96/8/1
f 99/8/1 97/8/1 98/8/1
f 101/5/1 100/5/1 99/5/1
f 102/5/1 100/5/1 101/5/1
f 106/5/1 104/5/1 103/5/1
f 106/5/1 105/5/1 104/5/1
f 107/5/1 105/5/1 106/5/1
f 110/8/1 109/8/1 108/8/1
f 111/8/1 109/8/1 110/8/1
f 114/7/1 113/7/1 112/7/1
f 115/7/1 113/7/1 114/7/1
f 116/6/2 117/6/2 118/6/2
f 118/6/2 117/6/2 119/6/2
f 118/8/2 119/8/2 121/8/2
f 121/8/2 119/8/2 122/8/2
f 120/2/2 121/2/2 124/2/2
f 121/8/2 122/8/2 125/8/2
f 124/2/2 121/2/2 125/2/2
f 122/2/2 123/2/2 126/2/2
f 125/8/2 122/8/2 126/8/2
f 126/2/2 123/2/2 127/2/2
f 125/8/2 126/8/2 128/8/2
f 128/8/2 126/8/2 129/8/2
f 130/8/2 131/8/2 132/8/2
f 132/8/2 131/8/2 133/8/2
f 134/8/2 135/8/2 136/8/2
f 136/8/2 135/8/2 137/8/2
f 137/5/2 138/5/2 139/5/2
f 139/5/2 138/5/2 140/5/2
f 141/5/2 142/5/2 144/5/2
f 142/5/2 143/5/2 144/5/2
f 144/5/2 143/5/2 145/5/2
f 146/7/2 147/7/2 148/7/2
f 148/7/2 147/7/2 149/7/2
f 150/5/2 151/5/2 152/5/2
f 150/5/2 152/5/2 154/5/2
f 152/5/2 153/5/2 154/5/2
f 154/5/2 153/5/2 155/5/2
f 155/5/2 153/5/2 156/5/2
f 156/5/2 153/5/2 157/5/2
f 157/5/2 153/5/2 158/5/2
f 158/5/2 153/5/2 159/5/2
f 159/5/2 153/5/2 160/5/2
f 161/1/2 162/1/2 163/1/2
f 163/1/2 162/1/2 164/1/2
f 164/1/2 162/1/2 165/1/2
f 165/1/2 162/1/2 166/1/2
f 161/1/2 163/1/2 168/1/2
f 168/1/2 163/1/2 169/1/2
f 166/1/2 167/1/2 170/1/2
f 170/1/2 167/1/2 171/1/2
f 171/7/2 172/7/2 173/7/2
f 170/7/2 171/7/2 173/7/2
f 173/7/2 172/7/2 174/7/2
f 174/7/2 172/7/2 177/7/2
f 177/7/2 172/7/2 178/7/2
f 175/7/2 176/7/2 179/7/2
f 175/7/2 179/7/2 183/7/2
f 179/7/2 180/7/2 183/7/2
f 183/7/2 180/7/2 184/7/2
f 184/7/2 180/7/2 185/7/2
f 181/7/2 182/7/2 186/7/2
f 186/7/2 182/7/2 187/7/2
f 184/7/2 185/7/2 188/7/2
f 185/7/2 186/7/2 188/7/2
f 188/7/2 186/7/2 189/7/2
f 190/1/2 191/1/2 192/1/2
f 192/1/2 191/1/2 193/1/2
f 192/5/2 193/5/2 194/5/2
f 194/5/2 195/5/2 196/5/2
f 192/5/2 194/5/2 198/5/2
f 196/5/2 197/5/2 198/5/2
f 194/5/2 196/5/2 198/5/2
f 198/5/2 197/5/2 199/5/2
f 200/7/2 201/7/2 205/7/2
f 204/7/2 205/7/2 207/7/2
f 201/1/2 202/1/2 208/1/2
f 205/7/2 201/7/2 208/7/2
f 207/7/2 205/7/2 208/7/2
f 202/7/2 203/7/2 209/7/2
f 208/1/2 202/1/2 209/1/2
f 209/7/2 203/7/2 210/7/2
f 209/7/2 210/7/2 212/7/2
f 210/7/2 211/7/2 212/7/2
f 208/7/2 209/7/2 212/7/2
f 207/7/2 208/7/2 212/7/2
f 206/7/2 207/7/2 212/7/2
f 212/7/2 211/7/2 213/7/2
f 213/7/2 211/7/2 214/7/2
f 214/7/2 215/7/2 216/7/2
f 213/7/2 214/7/2 216/7/2
f 216/7/2 215/7/2 217/7/2
f 217/7/2 215/7/2 218/7/2
f 218/7/2 215/7/2 219/7/2
f 217/7/2 218/7/2 220/7/2
f 220/7/2 218/7/2 221/7/2
f 224/2/3 223/2/3 222/2/3
f 225/2/3 223/2/3 224/2/3
f 231/6/3 227/6/3 226/6/3
f 232/8/3 228/8/3 227/8/3
f 232/6/3 227/6/3 231/6/3
f 233/8/3 228/8/3 232/8/3
f 234/8/3 230/8/3 229/8/3
f 235/8/3 230/8/3 234/8/3
f 239/7/3 237/7/3 236/7/3
f 241/7/3 239/7/3 238/7/3
f 242/7/3 239/7/3 241/7/3
f 242/7/3 241/7/3 240/7/3
f 243/7/3 237/7/3 239/7/3
f 243/7/3 239/7/3 242/7/3
f 244/7/3 242/7/3 240/7/3
f 245/7/3 242/7/3 244/7/3
f 249/7/3 247/7/3 246/7/3
f 250/7/3 247/7/3 249/7/3
f 251/7/3 247/7/3 250/7/3
f 254/1/3 249/1/3 248/1/3
f 254/1/3 250/1/3 249/1/3
f 255/1/3 250/1/3 254/1/3
f 256/1/3 254/1/3 248/1/3
f 256/8/3 255/8/3 254/8/3
f 257/1/3 250/1/3 255/1/3
f 257/8/3 255/8/3 256/8/3
f 258/1/3 256/1/3 248/1/3
f 258/1/3 257/1/3 256/1/3
f 259/1/3 250/1/3 257/1/3
f 259/1/3 257/1/3 258/1/3
f 260/1/3 258/1/3 248/1/3
f 260/8/3 259/8/3 258/8/3
f 261/1/3 250/1/3 259/1/3
f 261/8/3 259/8/3 260/8/3
f 262/1/3 250/1/3 261/1/3
f 263/7/3 253/7/3 252/7/3
f 264/7/3 253/7/3 263/7/3
f 265/1/3 260/1/3 248/1/3
f 265/1/3 261/1/3 260/1/3
f 266/1/3 261/1/3 265/1/3
f 267/1/3 261/1/3 266/1/3
f 270/7/3 263/7/3 252/7/3
f 271/7/3 263/7/3 270/7/3
f 272/7/3 267/7/3 266/7/3
f 273/7/3 267/7/3 272/7/3
f 274/7/3 269/7/3 268/7/3
f 275/7/3 269/7/3 274/7/3
f 282/7/3 277/7/3 276/7/3
f 283/7/3 277/7/3 282/7/3
f 287/5/3 279/5/3 278/5/3
f 288/5/3 279/5/3 287/5/3
f 289/7/3 281/7/3 280/7/3
f 290/7/3 281/7/3 289/7/3
f 291/7/3 284/7/3 283/7/3
f 292/7/3 284/7/3 291/7/3
f 293/5/3 286/5/3 285/5/3
f 294/4/3 287/4/3 286/4/3
f 294/5/3 286/5/3 293/5/3
f 294/4/3 288/4/3 287/4/3
f 295/4/3 288/4/3 294/4/3
f 296/5/3 279/5/3 288/5/3
f 296/4/3 288/4/3 295/4/3
f 297/5/3 279/5/3 296/5/3
f 298/4/3 295/4/3 294/4/3
f 298/4/3 294/4/3 293/4/3
f 299/5/3 296/5/3 295/5/3
f 299/4/3 295/4/3 298/4/3
f 300/3/3 297/3/3 296/3/3
f 300/5/3 296/5/3 299/5/3
f 301/5/3 299/5/3 298/5/3
f 301/4/3 298/4/3 293/4/3
f 302/3/3 300/3/3 299/3/3
f 302/5/3 299/5/3 301/5/3
f 303/3/3 297/3/3 300/3/3
f 303/3/3 300/3/3 302/3/3
f 304/4/3 302/4/3 301/4/3
f 304/4/3 301/4/3 293/4/3
f 305/4/3 302/4/3 304/4/3
f 306/5/3 303/5/3 302/5/3
f 306/4/3 302/4/3 305/4/3
f 307/5/3 303/5/3 306/5/3
f 308/3/3 297/3/3 303/3/3
f 308/5/3 303/5/3 307/5/3
f 309/3/3 297/3/3 308/3/3
f 310/5/3 305/5/3 304/5/3
f 311/4/3 306/4/3 305/4/3
f 311/5/3 305/5/3 310/5/3
f 312/4/3 306/4/3 311/4/3
f 313/6/3 307/6/3 306/6/3
f 313/4/3 306/4/3 312/4/3
f 314/4/3 308/4/3 307/4/3
f 314/6/3 307/6/3 313/6/3
f 315/5/3 309/5/3 308/5/3
f 315/4/3 308/4/3 314/4/3
f 320/1/3 312/1/3 311/1/3
f 321/5/3 315/5/3 314/5/3
f 321/1/3 312/1/3 320/1/3
f 321/5/3 313/5/3 312/5/3
f 321/5/3 314/5/3 313/5/3
f 322/5/3 309/5/3 315/5/3
f 322/5/3 315/5/3 321/5/3
f 323/7/3 317/7/3 316/7/3
f 324/7/3 317/7/3 323/7/3
f 325/7/3 319/7/3 318/7/3
f 326/7/3 319/7/3 325/7/3
f 331/7/3 328/7/3 327/7/3
f 332/7/3 328/7/3 331/7/3
f 333/1/3 330/1/3 329/1/3
f 334/1/3 330/1/3 333/1/3
f 339/8/3 336/8/3 335/8/3
f 340/8/3 336/8/3 339/8/3
f 341/5/3 338/5/3 337/5/3
f 342/5/3 338/5/3 341/5/3
f 345/1/3 342/1/3 341/1/3
f 346/1/3 342/1/3 345/1/3
f 347/8/3 344/8/3 343/8/3
f 348/8/3 344/8/3 347/8/3
f 349/5/3 346/5/3 345/5/3
f 350/5/3 346/5/3 349/5/3
f 351/6/4 352/6/4 356/6/4
f 352/8/4 353/8/4 357/8/4
f 356/6/4 352/6/4 357/6/4
f 357/8/4 353/8/4 358/8/4
f 354/8/4 355/8/4 359/8/4
f 359/8/4 355/8/4 360/8/4
f 361/5/4 362/5/4 363/5/4
f 363/5/4 362/5/4 364/5/4
f 365/1/4 366/1/4 368/1/4
f 366/5/4 367/5/4 369/5/4
f 368/1/4 366/1/4 369/1/4
f 369/5/4 367/5/4 370/5/4
f 371/7/4 372/7/4 379/7/4
f 379/7/4 372/7/4 380/7/4
f 373/2/4 374/2/4 383/2/4
f 383/2/4 374/2/4 384/2/4
f 375/5/4 376/5/4 385/5/4
f 385/5/4 376/5/4 386/5/4
f 377/1/4 378/1/4 387/1/4
f 387/1/4 378/1/4 388/1/4
f 381/5/4 382/5/4 390/5/4
f 390/5/4 382/5/4 391/5/4
f 389/8/4 390/8/4 392/8/4
f 392/8/4 390/8/4 393/8/4
f 394/8/4 395/8/4 396/8/4
f 396/8/4 395/8/4 397/8/4
f 397/5/4 398/5/4 399/5/4
f 399/5/4 398/5/4 400/5/4
f 401/5/4 402/5/4 403/5/4
f 403/5/4 402/5/4 404/5/4
f 405/7/4 406/7/4 409/7/4
f 409/7/4 406/7/4 410/7/4
f 407/5/4 408/5/4 412/5/4
f 412/5/4 408/5/4 413/5/4
f 411/5/4 412/5/4 419/5/4
f 419/5/4 412/5/4 420/5/4
f 412/4/4 413/4/4 421/4/4
f 420/5/4 412/5/4 421/5/4
f 421/4/4 413/4/4 422/4/4
f 414/1/4 415/1/4 423/1/4
f 419/5/4 420/5/4 424/5/4
f 418/5/4 419/5/4 424/5/4
f 421/4/4 422/4/4 425/4/4
f 424/5/4 420/5/4 425/5/4
f 420/4/4 421/4/4 425/4/4
f 418/5/4 424/5/4 426/5/4
f 424/4/4 425/4/4 426/4/4
f 425/4/4 422/4/4 427/4/4
f 426/4/4 425/4/4 427/4/4
f 418/5/4 426/5/4 428/5/4
f 426/5/4 427/5/4 428/5/4
f 428/5/4 427/5/4 429/5/4
f 427/4/4 422/4/4 430/4/4
f 429/5/4 427/5/4 430/5/4
f 430/4/4 422/4/4 431/4/4
f 422/5/4 423/5/4 432/5/4
f 431/4/4 422/4/4 432/4/4
f 423/1/4 415/1/4 433/1/4
f 432/5/4 423/5/4 433/5/4
f 416/7/4 417/7/4 434/7/4
f 434/7/4 417/7/4 435/7/4
f 430/5/4 431/5/4 436/5/4
f 429/5/4 430/5/4 436/5/4
f 431/4/4 432/4/4 437/4/4
f 436/5/4 431/5/4 437/5/4
f 437/4/4 432/4/4 438/4/4
f 433/1/4 415/1/4 439/1/4
f 439/1/4 415/1/4 440/1/4
f 437/5/4 438/5/4 443/5/4
f 443/5/4 438/5/4 444/5/4
f 441/7/4 442/7/4 445/7/4
f 440/7/4 441/7/4 445/7/4
f 445/7/4 442/7/4 446/7/4
f 447/7/4 448/7/4 450/7/4
f 450/7/4 448/7/4 451/7/4
f 449/1/4 450/1/4 452/1/4
f 452/1/4 450/1/4 453/1/4
f 451/7/4 448/7/4 457/7/4
f 457/7/4 448/7/4 458/7/4
f 454/7/4 455/7/4 459/7/4
f 459/7/4 455/7/4 460/7/4
f 456/7/4 457/7/4 461/7/4
f 461/7/4 457/7/4 462/7/4
f 463/7/4 464/7/4 465/7/4
f 465/7/4 464/7/4 466/7/4
f 466/7/4 464/7/4 467/7/4
f 467/7/4 464/7/4 468/7/4
f 466/7/4 467/7/4 469/7/4
f 469/7/4 467/7/4 470/7/4
f 475/8/5 472/8/5 471/8/5
f 476/8/5 472/8/5 475/8/5
f 477/8/5 474/8/5 473/8/5
f 478/8/5 474/8/5 477/8/5
f 481/6/5 480/6/5 479/6/5
f 482/6/5 480/6/5 481/6/5
f 487/5/5 484/5/5 483/5/5
f 487/4/5 485/4/5 484/4/5
f 488/4/5 485/4/5 487/4/5
f 489/4/5 485/4/5 488/4/5
f 490/5/5 486/5/5 485/5/5
f 490/4/5 485/4/5 489/4/5
f 491/5/5 487/5/5 483/5/5
f 492/5/5 487/5/5 491/5/5
f 493/4/5 489/4/5 488/4/5
f 494/4/5 489/4/5 493/4/5
f 495/5/5 486/5/5 490/5/5
f 496/5/5 486/5/5 495/5/5
f 497/5/5 494/5/5 493/5/5
f 497/5/5 495/5/5 494/5/5
f 497/5/5 493/5/5 492/5/5
f 498/5/5 495/5/5 497/5/5
f 503/5/5 500/5/5 499/5/5
f 504/5/5 500/5/5 503/5/5
f 505/5/5 502/5/5 501/5/5
f 506/5/5 502/5/5 505/5/5
f 509/2/5 508/2/5 507/2/5
f 510/2/5 508/2/5 509/2/5
f 513/2/5 512/2/5 511/2/5
f 514/2/5 512/2/5 513/2/5
f 517/1/5 514/1/5 513/1/5
f 518/1/5 514/1/5 517/1/5
f 519/1/5 516/1/5 515/1/5
f 520/1/5 516/1/5 519/1/5
f 521/2/5 518/2/5 517/2/5
f 522/2/5 518/2/5 521/2/5
f 527/5/5 524/5/5 523/5/5
f 528/5/5 524/5/5 527/5/5
f 529/5/5 526/5/5 525/5/5
f 530/5/5 526/5/5 529/5/5
f 535/5/5 532/5/5 531/5/5
f 536/5/5 532/5/5 535/5/5
f 537/5/5 534/5/5 533/5/5
f 538/5/5 534/5/5 537/5/5
f 541/1/5 540/1/5 539/1/5
f 542/1/5 540/1/5 541/1/5
f 543/1/5 540/1/5 542/1/5
f 544/1/5 540/1/5 543/1/5
f 545/1/5 541/1/5 539/1/5
f 546/1/5 541/1/5 545/1/5
f 547/1/5 540/1/5 544/1/5
f 548/1/5 540/1/5 547/1/5
f 553/7/5 550/7/5 549/7/5
f 554/7/5 550/7/5 553/7/5
f 555/1/5 552/1/5 551/1/5
f 556/1/5 552/1/5 555/1/5
f 557/1/5 554/1/5 553/1/5
f 558/1/5 554/1/5 557/1/5
f 560/7/5 558/7/5 557/7/5
f 561/7/5 558/7/5 560/7/5
f 562/1/5 560/1/5 559/1/5
f 563/1/5 560/1/5 562/1/5
f 568/7/5 565/7/5 564/7/5
f 569/7/5 565/7/5 568/7/5
f 570/7/5 567/7/5 566/7/5
f 571/7/5 567/7/5 570/7/5
f 574/7/5 573/7/5 572/7/5
f 575/7/5 573/7/5 574/7/5
f 577/7/5 576/7/5 575/7/5
f 578/7/5 576/7/5 577/7/5
f 583/7/5 580/7/5 579/7/5
f 584/7/5 580/7/5 583/7/5
f 585/7/5 580/7/5 584/7/5
f 586/7/5 582/7/5 581/7/5
f 587/7/5 582/7/5 586/7/5
f 590/7/5 589/7/5 588/7/5
f 591/7/5 589/7/5 590/7/5
f 594/7/5 593/7/5 592/7/5
f 595/7/5 593/7/5 594/7/5
f 598/7/5 597/7/5 596/7/5
f 599/7/5 597/7/5 598/7/5
f 602/7/5 601/7/5 600/7/5
f 603/7/5 601/7/5 602/7/5
f 606/7/5 605/7/5 604/7/5
f 607/7/5 605/7/5 606/7/5
f 610/7/5 609/7/5 608/7/5
f 611/7/5 609/7/5 610/7/5
f 614/7/5 613/7/5 612/7/5
f 615/7/5 613/7/5 614/7/5
f 616/2/6 617/2/6 618/2/6
f 618/2/6 617/2/6 619/2/6
f 620/2/6 621/2/6 622/2/6
f 622/2/6 621/2/6 623/2/6
f 624/2/6 625/2/6 626/2/6
f 626/2/6 625/2/6 627/2/6
f 628/8/6 629/8/6 630/8/6
f 630/8/6 629/8/6 631/8/6
f 632/5/6 633/5/6 636/5/6
f 636/5/6 633/5/6 637/5/6
f 633/3/6 634/3/6 638/3/6
f 637/5/6 633/5/6 638/5/6
f 638/3/6 634/3/6 639/3/6
f 639/3/6 634/3/6 640/3/6
f 634/5/6 635/5/6 641/5/6
f 640/3/6 634/3/6 641/3/6
f 641/5/6 635/5/6 642/5/6
f 636/4/6 637/4/6 643/4/6
f 637/6/6 638/6/6 644/6/6
f 643/4/6 637/4/6 644/4/6
f 644/6/6 638/6/6 645/6/6
f 641/6/6 642/6/6 646/6/6
f 642/5/6 635/5/6 647/5/6
f 646/6/6 642/6/6 647/6/6
f 643/5/6 644/5/6 648/5/6
f 644/4/6 645/4/6 649/4/6
f 648/5/6 644/5/6 649/5/6
f 649/4/6 645/4/6 650/4/6
f 646/4/6 647/4/6 651/4/6
f 647/5/6 635/5/6 652/5/6
f 651/4/6 647/4/6 652/4/6
f 652/5/6 635/5/6 653/5/6
f 654/7/6 655/7/6 656/7/6
f 656/7/6 655/7/6 657/7/6
f 658/7/6 659/7/6 660/7/6
f 660/7/6 659/7/6 661/7/6
f 662/7/6 663/7/6 664/7/6
f 664/7/6 663/7/6 665/7/6
f 666/7/6 667/7/6 668/7/6
f 668/7/6 667/7/6 669/7/6
f 666/7/6 668/7/6 671/7/6
f 671/7/6 668/7/6 672/7/6
f 670/7/6 671/7/6 675/7/6
f 675/7/6 671/7/6 676/7/6
f 673/7/6 674/7/6 678/7/6
f 678/7/6 674/7/6 679/7/6
f 677/7/6 678/7/6 680/7/6
f 680/7/6 678/7/6 681/7/6
f 684/7/6 685/7/6 686/7/6
f 682/7/6 683/7/6 687/7/6
f 684/7/6 686/7/6 688/7/6
f 686/7/6 687/7/6 688/7/6
f 687/7/6 683/7/6 689/7/6
f 688/7/6 687/7/6 689/7/6
f 690/7/6 691/7/6 692/7/6
f 692/7/6 691/7/6 693/7/6
